<svg xmlns="http://www.w3.org/2000/svg" width="64" height="64" viewBox="0 0 64 64">
  <defs>
    <style>
      .cls-1 {
        fill: #333;
        fill-rule: evenodd;
      }
    </style>
  </defs>
  <path id="video-tutorials-l" class="cls-1" d="M652,2573H600v38h52v-38Zm-2,32H602v-30h48v30Zm-2-28H604v26h44v-26Zm-23,7,7,5a1.354,1.354,0,0,1,0,2l-7,5c-0.864.77-3,1-3-1v-10C622,2583,624.151,2583.25,625,2584Zm-1,10,6-4-6-4v8Zm2,13a1,1,0,1,1-1,1A1,1,0,0,1,626,2607Zm-2,6-0.75,4h5.5l-0.75-4h-4Zm-24,0a2.209,2.209,0,0,1-2-2v-38a2.064,2.064,0,0,1,2-2h52a2.14,2.14,0,0,1,2,2v38a2.21,2.21,0,0,1-2,2H630l0.75,4H634a1.028,1.028,0,0,1,1,1.05,0.975,0.975,0,0,1-1,.95H618a1,1,0,0,1,0-2h3.25l0.75-4H600Z" transform="translate(-594 -2563)"/>
</svg>
