<svg xmlns="http://www.w3.org/2000/svg" width="64" height="64" viewBox="0 0 64 64">
  <defs>
    <style>
      .cls-1 {
        fill: #333;
        fill-rule: evenodd;
      }
    </style>
  </defs>
  <path id="whats-app-l" class="cls-1" d="M626,1365a27.819,27.819,0,0,1-14.25-3.93L598,1365l3.928-13.75A27.98,27.98,0,1,1,626,1365Zm0-54a26,26,0,0,0-21.527,40.58L601,1362l10.419-3.47A26,26,0,1,0,626,1311Zm-5.73,12.06a2.685,2.685,0,0,1,1.506.99,17.7,17.7,0,0,1,1.95,4.63c0,0.43.1,1.1,0.061,1.56a2.036,2.036,0,0,1-.38,1.08,6.831,6.831,0,0,1-2.257,1.51,2.929,2.929,0,0,0-.676.48c-0.029.02,0.053,0.38-.047,0.16,0.026-.24-0.059.1,0.01,0.26a27.106,27.106,0,0,0,5.76,8.35,11.264,11.264,0,0,0,1.885,1.44c0.022-.17.08-0.01,0.093-0.02a1.253,1.253,0,0,0,.441-0.32,8.111,8.111,0,0,1,1.055-1.18,3.257,3.257,0,0,1,1.929-.98,2.878,2.878,0,0,1,1.793.56,17.874,17.874,0,0,1,3.337,2.4,3.409,3.409,0,0,1,1.275,2.19,3.11,3.11,0,0,1-.869,2.29,6.236,6.236,0,0,1-1.751,1.51,7.349,7.349,0,0,1-2.072.85,9.165,9.165,0,0,1-1.762.17,2.092,2.092,0,0,1-.26-0.01,11.008,11.008,0,0,1-5-1.72,23.8,23.8,0,0,1-7.244-6.5,24.5,24.5,0,0,1-4.881-10.73,13.868,13.868,0,0,1-.161-2.43,7.2,7.2,0,0,1,1.69-4.19,7.121,7.121,0,0,1,1.084-1.09,6.175,6.175,0,0,1,2.175-1.21h0A3.259,3.259,0,0,1,620.27,1323.06Z" transform="translate(-594 -1305)"/>
</svg>
